<svg xmlns="http://www.w3.org/2000/svg" style="display: none;">
    <symbol id="icon-plus" viewBox="0 0 32 32">
    <path d="M16 1.28c-8.122 0-14.72 6.598-14.72 14.72s6.598 14.72 14.72 14.72c8.122 0 14.72-6.598 14.72-14.72s-6.598-14.72-14.72-14.72zM16 2.56c7.43 0 13.44 6.010 13.44 13.44s-6.010 13.44-13.44 13.44c-7.43 0-13.44-6.010-13.44-13.44s6.010-13.44 13.44-13.44zM15.36 8.32v7.040h-7.040v1.28h7.040v7.040h1.28v-7.040h7.040v-1.28h-7.040v-7.040h-1.28z"></path>
    </symbol>
    <symbol id="icon-add" viewBox="0 0 32 32">
    <path d="M16 2.667c-7.364 0-13.333 5.969-13.333 13.333s5.969 13.333 13.333 13.333 13.333-5.969 13.333-13.333-5.969-13.333-13.333-13.333zM21.333 17.333h-4v4c0 0.736-0.597 1.333-1.333 1.333v0c-0.736 0-1.333-0.597-1.333-1.333v-4h-4c-0.736 0-1.333-0.597-1.333-1.333v0c0-0.736 0.597-1.333 1.333-1.333h4v-4c0-0.736 0.597-1.333 1.333-1.333v0c0.736 0 1.333 0.597 1.333 1.333v4h4c0.736 0 1.333 0.597 1.333 1.333v0c0 0.736-0.597 1.333-1.333 1.333z"></path>
    </symbol>
</svg>